<svg xmlns="http://www.w3.org/2000/svg" width="30" height="30" viewBox="0 0 30 30" role="img" aria-label="Pointing cursor icon">
  <defs>
    <linearGradient id="skin" x1="6" y1="3" x2="25" y2="27" gradientUnits="userSpaceOnUse">
      <stop offset="0" stop-color="#ffffff"/>
      <stop offset="0.42" stop-color="#fff1bf"/>
      <stop offset="1" stop-color="#ffc35a"/>
    </linearGradient>
    <filter id="shadow" x="-25%" y="-25%" width="150%" height="150%">
      <feDropShadow dx="0.55" dy="0.95" stdDeviation="0.5" flood-color="#132238" flood-opacity="0.25"/>
    </filter>
  </defs>
  <path d="M12.7 15.9V4.9c0-1.4 1-2.4 2.3-2.4s2.3 1 2.3 2.4v9.6l2.1-1.6c1-.7 2.3-.6 3.1.3l3.6 4c.7.8.9 1.8.6 2.7l-.9 2.9c-.8 2.6-3.1 4.3-5.9 4.3h-4.8c-3.3 0-5.8-1.5-7.4-4.2l-2.7-4.7c-.6-1.1-.3-2.4.8-3 1-.5 2.1-.3 2.8.6l2.1 2.4V10.8c0-1.3.9-2.3 2.2-2.3" fill="url(#skin)" stroke="#132238" stroke-width="1.55" stroke-linecap="round" stroke-linejoin="round" filter="url(#shadow)"/>
  <path d="M15 4.9v12.8M11.2 11.4v7.3M17.6 15.2l2.7-1.9" fill="none" stroke="#7e5b10" stroke-width="0.85" stroke-linecap="round" opacity="0.45"/>
  <path d="M8.5 19.7c2.1 2.3 3.9 3.4 7 3.4h3.8" fill="none" stroke="#ffffff" stroke-width="1.1" stroke-linecap="round" opacity="0.85"/>
</svg>
