<svg xmlns="http://www.w3.org/2000/svg" viewBox="0 0 64 64"><defs><linearGradient id="arc" x1="10" y1="8" x2="54" y2="58"><stop offset="0" stop-color="#fff8dc"/><stop offset="0.48" stop-color="#ffbf5f"/><stop offset="1" stop-color="#ff8a35"/></linearGradient><linearGradient id="core" x1="20" y1="20" x2="44" y2="44"><stop offset="0" stop-color="#dff6ff"/><stop offset="0.55" stop-color="#2f7df6"/><stop offset="1" stop-color="#125bc5"/></linearGradient><linearGradient id="dot" x1="26" y1="26" x2="38" y2="38"><stop offset="0" stop-color="#fff8dc"/><stop offset="1" stop-color="#ff9b35"/></linearGradient></defs><path d="M18 36 C15 25 23 14 35 14 C44 14 51 20 53 29" fill="none" stroke="#ffffff" stroke-width="10" stroke-linecap="round"/><path d="M18 36 C15 25 23 14 35 14 C44 14 51 20 53 29" fill="none" stroke="url(#arc)" stroke-width="6.2" stroke-linecap="round"/><path d="M54 30 L41.5 24.5 L50 17.5 Z" fill="url(#arc)" stroke="#8a3600" stroke-width="1.6" stroke-linejoin="round"/><path d="M46 47 C37 55 22 51 18 39" fill="none" stroke="#ffffff" stroke-width="10" stroke-linecap="round"/><path d="M46 47 C37 55 22 51 18 39" fill="none" stroke="url(#arc)" stroke-width="6.2" stroke-linecap="round"/><path d="M17 38 L30 43.5 L21 51 Z" fill="url(#arc)" stroke="#8a3600" stroke-width="1.6" stroke-linejoin="round"/><circle cx="32" cy="32" r="10.5" fill="url(#core)" stroke="#15324d" stroke-width="2"/><circle cx="32" cy="32" r="4.2" fill="url(#dot)" stroke="#8a3600" stroke-width="1.2"/><path d="M27 28 C30 25 35 25 38 28" fill="none" stroke="#ffffff" stroke-width="1.6" stroke-linecap="round" opacity="0.8"/></svg>
