<svg xmlns="http://www.w3.org/2000/svg" width="30" height="30" viewBox="0 0 30 30" role="img" aria-label="Grab cursor icon">
  <defs>
    <linearGradient id="skin" x1="6" y1="4" x2="25" y2="27" gradientUnits="userSpaceOnUse">
      <stop offset="0" stop-color="#ffffff"/>
      <stop offset="0.45" stop-color="#fff1bf"/>
      <stop offset="1" stop-color="#ffb347"/>
    </linearGradient>
    <filter id="shadow" x="-25%" y="-25%" width="150%" height="150%">
      <feDropShadow dx="0.55" dy="0.95" stdDeviation="0.5" flood-color="#132238" flood-opacity="0.26"/>
    </filter>
  </defs>
  <path d="M8.3 16.7V11c0-1.3.9-2.2 2.2-2.2 1.1 0 2 .8 2.1 1.9V7.2c0-1.4 1-2.4 2.3-2.4s2.3 1 2.3 2.4v3.3c.3-.9 1.1-1.6 2.2-1.6 1.3 0 2.2.9 2.2 2.2v2.1c.3-.8 1-1.4 2-1.4 1.3 0 2.2.9 2.2 2.2v3.8c0 5-3.4 8.5-8.7 8.5h-3.6c-4 0-6.7-1.5-8.6-4.6l-2.1-3.7c-.7-1.2-.3-2.5.8-3.1 1-.5 2.1-.2 2.9.7z" fill="url(#skin)" stroke="#132238" stroke-width="1.55" stroke-linecap="round" stroke-linejoin="round" filter="url(#shadow)"/>
  <path d="M9.8 12.1h10.4c2.1 0 3.8 1.6 3.8 3.8" fill="none" stroke="#7e5b10" stroke-width="0.95" stroke-linecap="round" opacity="0.45"/>
  <path d="M12.8 8.2v7.4M17.3 8.2v7.4M21.6 11.4v5" fill="none" stroke="#7e5b10" stroke-width="0.85" stroke-linecap="round" opacity="0.45"/>
  <path d="M7.7 19c2.6 2.5 4.7 3.4 8.3 3.4h3.1" fill="none" stroke="#ffffff" stroke-width="1.1" stroke-linecap="round" opacity="0.85"/>
</svg>
