<svg xmlns="http://www.w3.org/2000/svg" viewBox="0 0 64 64" role="img" aria-label="Open hand cursor icon">
  <defs>
    <linearGradient id="skin" x1="12" y1="6" x2="54" y2="58" gradientUnits="userSpaceOnUse">
      <stop offset="0" stop-color="#fff7df"/>
      <stop offset=".42" stop-color="#ffcf78"/>
      <stop offset="1" stop-color="#f07d22"/>
    </linearGradient>
    <linearGradient id="shade" x1="12" y1="12" x2="48" y2="58" gradientUnits="userSpaceOnUse">
      <stop offset="0" stop-color="#ffffff" stop-opacity=".82"/>
      <stop offset="1" stop-color="#763100" stop-opacity=".28"/>
    </linearGradient>
    <filter id="shadow" x="-25%" y="-25%" width="150%" height="150%">
      <feDropShadow dx="1.6" dy="2.5" stdDeviation="1.4" flood-color="#4a2100" flood-opacity=".30"/>
    </filter>
  </defs>
  <path d="M18 31V18c0-2.7 1.9-4.7 4.5-4.7 2.5 0 4.4 2 4.4 4.7v11.5-17.3c0-2.8 2-4.9 4.7-4.9 2.7 0 4.7 2.1 4.7 4.9v17.1-14.6c0-2.7 2-4.8 4.6-4.8s4.6 2.1 4.6 4.8v16.2-10.4c0-2.6 1.9-4.5 4.4-4.5 2.6 0 4.5 1.9 4.5 4.5V37c0 11.8-7.5 19.5-19.6 19.5H31c-8.5 0-14.4-3.3-18.3-10.2L7.8 37.5c-1.3-2.4-.5-5.1 1.9-6.3 2.1-1.1 4.5-.4 6.1 1.6L18 35.5z" fill="url(#skin)" stroke="#8b3c00" stroke-width="3" stroke-linecap="round" stroke-linejoin="round" filter="url(#shadow)"/>
  <path d="M23 18v17M31.8 12.4v21.2M40.9 15v19.3M49.7 21.3v15.2" fill="none" stroke="#8b3c00" stroke-width="1.7" stroke-linecap="round" opacity=".45"/>
  <path d="M15 37.5c5.4 6.3 9.8 8.8 17.2 8.8h7.4" fill="none" stroke="#fff6dc" stroke-width="2.2" stroke-linecap="round" opacity=".78"/>
  <path d="M20 17.5c.4-1.5 1.4-2.4 2.8-2.6M28.9 12.4c.5-1.7 1.6-2.6 3.1-2.8M38.3 15.2c.5-1.5 1.5-2.4 3-2.5" fill="none" stroke="#ffffff" stroke-width="2" stroke-linecap="round" opacity=".75"/>
</svg>
