<svg xmlns="http://www.w3.org/2000/svg" viewBox="0 0 64 64" role="img" aria-label="Pointing hand cursor icon">
  <defs>
    <linearGradient id="skin" x1="12" y1="6" x2="54" y2="58" gradientUnits="userSpaceOnUse">
      <stop offset="0" stop-color="#fff7df"/>
      <stop offset=".42" stop-color="#ffcf78"/>
      <stop offset="1" stop-color="#f07d22"/>
    </linearGradient>
    <filter id="shadow" x="-25%" y="-25%" width="150%" height="150%">
      <feDropShadow dx="1.6" dy="2.5" stdDeviation="1.4" flood-color="#4a2100" flood-opacity=".30"/>
    </filter>
  </defs>
  <path d="M25.5 34V10.5c0-3 2.1-5.2 5-5.2s5 2.2 5 5.2v20.2l4.6-3.4c2.1-1.5 4.9-1.2 6.6.7l7.6 8.5c1.4 1.6 1.8 3.6 1.2 5.6l-1.9 6.2C52 53.8 47 57.5 41.2 57.5H31c-6.9 0-12.3-3.1-15.6-8.9l-5.7-10c-1.3-2.3-.6-5 1.7-6.3 2-1.1 4.5-.6 6 1.2l4.4 5.1V22.8c0-2.8 2-4.9 4.7-4.9" fill="url(#skin)" stroke="#8b3c00" stroke-width="3" stroke-linecap="round" stroke-linejoin="round" filter="url(#shadow)"/>
  <path d="M30.5 9.5v27M22.2 24.1v15.5M36 32l5.7-4.1" fill="none" stroke="#8b3c00" stroke-width="1.8" stroke-linecap="round" opacity=".45"/>
  <path d="M18 41.5c4.4 5 8.2 7.2 14.7 7.2h8" fill="none" stroke="#fff6dc" stroke-width="2.2" stroke-linecap="round" opacity=".78"/>
</svg>
