<svg xmlns="http://www.w3.org/2000/svg" width="30" height="30" viewBox="0 0 30 30" role="img" aria-label="Open hand cursor icon">
  <defs>
    <linearGradient id="skin" x1="6" y1="3" x2="25" y2="27" gradientUnits="userSpaceOnUse">
      <stop offset="0" stop-color="#ffffff"/>
      <stop offset="0.42" stop-color="#fff1bf"/>
      <stop offset="1" stop-color="#ffc35a"/>
    </linearGradient>
    <filter id="shadow" x="-25%" y="-25%" width="150%" height="150%">
      <feDropShadow dx="0.55" dy="0.95" stdDeviation="0.5" flood-color="#132238" flood-opacity="0.25"/>
    </filter>
  </defs>
  <path d="M8.6 14.2V7.7c0-1.3.9-2.2 2.1-2.2s2.1.9 2.1 2.2v6.2-8.2c0-1.4 1-2.4 2.3-2.4s2.3 1 2.3 2.4v8-6.5c0-1.3 1-2.3 2.2-2.3s2.2 1 2.2 2.3v7.5-4.5c0-1.2.9-2.1 2.1-2.1s2.1.9 2.1 2.1v7.2c0 5.7-3.7 9.4-9.6 9.4h-3.2c-4 0-6.7-1.5-8.6-4.7l-2.3-4c-.6-1.1-.2-2.4.9-3 1-.5 2.1-.2 2.9.7l2.5 2.8z" fill="url(#skin)" stroke="#132238" stroke-width="1.55" stroke-linecap="round" stroke-linejoin="round" filter="url(#shadow)"/>
  <path d="M10.7 7.7v8.1M15.1 5.7v10.2M19.6 7.2v9M23.9 10.3v7.1" fill="none" stroke="#7e5b10" stroke-width="0.85" stroke-linecap="round" opacity="0.45"/>
  <path d="M6.4 18c2.7 3.1 4.7 4.1 8.2 4.1h3.7" fill="none" stroke="#ffffff" stroke-width="1.1" stroke-linecap="round" opacity="0.85"/>
</svg>
