<svg xmlns="http://www.w3.org/2000/svg" viewBox="0 0 64 64" role="img" aria-label="Closed hand cursor icon">
  <defs>
    <linearGradient id="skin" x1="12" y1="7" x2="54" y2="58" gradientUnits="userSpaceOnUse">
      <stop offset="0" stop-color="#fff4d6"/>
      <stop offset=".45" stop-color="#ffc25f"/>
      <stop offset="1" stop-color="#ec721f"/>
    </linearGradient>
    <filter id="shadow" x="-25%" y="-25%" width="150%" height="150%">
      <feDropShadow dx="1.6" dy="2.6" stdDeviation="1.5" flood-color="#4a2100" flood-opacity=".32"/>
    </filter>
  </defs>
  <path d="M17.5 35.8V24.2c0-2.8 2-4.8 4.7-4.8 2.4 0 4.2 1.7 4.5 4.1v-7.2c0-2.9 2.1-5 4.9-5 2.8 0 4.9 2.1 4.9 5v7c.4-2.1 2.2-3.6 4.5-3.6 2.7 0 4.7 2 4.7 4.7v4.4c.5-1.8 2.1-3 4.2-3 2.7 0 4.6 2 4.6 4.8v7.8c0 10.5-7.1 17.7-18.2 17.7h-7.4c-8.5 0-14.3-3.1-18.3-9.8l-4.5-7.8c-1.4-2.5-.6-5.3 1.8-6.5 2.1-1.1 4.4-.5 6.1 1.4z" fill="url(#skin)" stroke="#8b3c00" stroke-width="3" stroke-linecap="round" stroke-linejoin="round" filter="url(#shadow)"/>
  <path d="M20.2 25.5h21.5c4.5 0 8.1 3.5 8.1 8.1" fill="none" stroke="#8b3c00" stroke-width="2" stroke-linecap="round" opacity=".45"/>
  <path d="M27.1 18v16M36.6 18v16M45.5 25v10" fill="none" stroke="#8b3c00" stroke-width="1.8" stroke-linecap="round" opacity=".45"/>
  <path d="M16.5 40c5.4 5.5 10.1 7.5 17.8 7.5h6.6" fill="none" stroke="#fff5d8" stroke-width="2.2" stroke-linecap="round" opacity=".80"/>
</svg>
