<svg xmlns="http://www.w3.org/2000/svg" width="400" height="220" viewBox="0 0 400 220">
  <rect width="400" height="220" fill="#ffffff"/>
  <g stroke="#d8e2ef" stroke-width="1">
    <path d="M20 0V220M40 0V220M60 0V220M80 0V220M100 0V220M120 0V220M140 0V220M160 0V220M180 0V220M200 0V220M220 0V220M240 0V220M260 0V220M280 0V220M300 0V220M320 0V220M340 0V220M360 0V220M380 0V220"/>
    <path d="M0 20H400M0 40H400M0 60H400M0 80H400M0 100H400M0 120H400M0 140H400M0 160H400M0 180H400M0 200H400"/>
  </g>
  <g stroke="#132238" stroke-width="4" stroke-linecap="round">
    <path d="M36 184H350"/>
    <path d="M36 184V28"/>
  </g>
  <path d="M350 184l-16-9v18z" fill="#132238"/>
  <path d="M36 28l-9 16h18z" fill="#132238"/>
  <text x="354" y="190" font-family="Arial" font-size="18" font-weight="700" fill="#1e4f8f">X</text>
  <text x="24" y="24" font-family="Arial" font-size="18" font-weight="700" fill="#1e4f8f">Y</text>
  <circle cx="130" cy="110" r="34" fill="#2d7eea" opacity="0.22" stroke="#2d7eea" stroke-width="4"/>
  <rect x="205" y="78" width="92" height="64" rx="8" fill="#ffbd57" opacity="0.82" stroke="#132238" stroke-width="3"/>
</svg>
